<svg width="200" height="200" viewBox="0 0 200 200" fill="none" xmlns="http://www.w3.org/2000/svg">
<rect width="100" height="100" transform="matrix(1 0 0 -1 100 200)" fill="#79C8C7"/>
<path d="M100 0C44.7715 0 0 44.7715 0 100C0 155.228 44.7715 200 100 200C155.228 200 200 155.228 200 100C200 44.7715 155.228 0 100 0ZM100 67C118.225 67 133 81.7746 133 100C133 118.225 118.225 133 100 133C81.7746 133 67 118.225 67 100C67 81.7746 81.7746 67 100 67Z" fill="#012F34"/>
<path d="M196 200H200V196H196V200ZM189 200H193V196H189V200ZM182 200H186V196H182V200ZM175 200H179V196H175V200ZM168 200H172V196H168V200ZM161 200H165V196H161V200ZM154 200H158V196H154V200ZM147 200H151V196H147V200ZM196 192H200V188H196V192ZM189 192H193V188H189V192ZM182 192H186V188H182V192ZM175 192H179V188H175V192ZM168 192H172V188H168V192ZM161 192H165V188H161V192ZM154 192H158V188H154V192ZM147 192H151V188H147V192ZM196 184H200V180H196V184ZM189 184H193V180H189V184ZM182 184H186V180H182V184ZM175 184H179V180H175V184ZM168 184H172V180H168V184ZM161 184H165V180H161V184ZM154 184H158V180H154V184ZM147 184H151V180H147V184ZM196 176H200V172H196V176ZM189 176H193V172H189V176ZM182 176H186V172H182V176ZM175 176H179V172H175V176ZM168 176H172V172H168V176ZM161 176H165V172H161V176ZM154 176H158V172H154V176ZM147 176H151V172H147V176ZM196 168H200V164H196V168ZM189 168H193V164H189V168ZM182 168H186V164H182V168ZM175 168H179V164H175V168ZM168 168H172V164H168V168ZM161 168H165V164H161V168ZM154 168H158V164H154V168ZM147 168H151V164H147V168ZM196 160H200V156H196V160ZM189 160H193V156H189V160ZM182 160H186V156H182V160ZM175 160H179V156H175V160ZM168 160H172V156H168V160ZM161 160H165V156H161V160ZM154 160H158V156H154V160ZM147 160H151V156H147V160Z" fill="#F67E7E"/>
</svg>
