<svg width="53" height="44" viewBox="0 0 53 44" fill="none" xmlns="http://www.w3.org/2000/svg">
<path fill-rule="evenodd" clip-rule="evenodd" d="M53 0H49V4H53V0ZM42 0H46V4H42V0ZM42 8H46V12H42V8ZM46 16H42V20H46V16ZM42 24H46V28H42V24ZM46 32H42V36H46V32ZM42 40H46V44H42V40ZM39 0H35V4H39V0ZM39 8H35V12H39V8ZM35 16H39V20H35V16ZM39 24H35V28H39V24ZM35 32H39V36H35V32ZM39 40H35V44H39V40ZM53 8H49V12H53V8ZM32 0H28V4H32V0ZM32 8H28V12H32V8ZM28 16H32V20H28V16ZM32 24H28V28H32V24ZM28 32H32V36H28V32ZM32 40H28V44H32V40ZM53 16H49V20H53V16ZM25 0H21V4H25V0ZM25 8H21V12H25V8ZM21 16H25V20H21V16ZM25 24H21V28H25V24ZM21 32H25V36H21V32ZM25 40H21V44H25V40ZM53 24H49V28H53V24ZM18 0H14V4H18V0ZM18 8H14V12H18V8ZM14 16H18V20H14V16ZM18 24H14V28H18V24ZM14 32H18V36H14V32ZM18 40H14V44H18V40ZM53 32H49V36H53V32ZM11 0H7V4H11V0ZM11 8H7V12H11V8ZM7 16H11V20H7V16ZM11 24H7V28H11V24ZM7 32H11V36H7V32ZM11 40H7V44H11V40ZM53 40H49V44H53V40ZM4 0H0V4H4V0ZM4 8H0V12H4V8ZM0 16H4V20H0V16ZM4 24H0V28H4V24ZM0 32H4V36H0V32ZM4 40H0V44H4V40Z" fill="#F67E7E"/>
</svg>
