<svg width="200" height="200" viewBox="0 0 200 200" fill="none" xmlns="http://www.w3.org/2000/svg">
<rect width="100" height="100" transform="matrix(1 0 0 -1 100 100)" fill="#2C6269"/>
<path d="M100 0C44.7715 0 0 44.7715 0 100C0 155.228 44.7715 200 100 200C155.228 200 200 155.228 200 100C200 44.7715 155.228 0 100 0ZM100 67C118.225 67 133 81.7746 133 100C133 118.225 118.225 133 100 133C81.7746 133 67 118.225 67 100C67 81.7746 81.7746 67 100 67Z" fill="#012F34"/>
<path d="M100 100H200V96H100V100ZM100 92H200V88H100V92ZM100 84H200V80H100V84ZM100 76H200V72H100V76ZM100 68H200V64H100V68ZM100 60H200V56H100V60Z" fill="#79C8C7"/>
<path d="M196 144H200V140H196V144ZM189 144H193V140H189V144ZM182 144H186V140H182V144ZM175 144H179V140H175V144ZM168 144H172V140H168V144ZM161 144H165V140H161V144ZM154 144H158V140H154V144ZM147 144H151V140H147V144ZM196 136H200V132H196V136ZM189 136H193V132H189V136ZM182 136H186V132H182V136ZM175 136H179V132H175V136ZM168 136H172V132H168V136ZM161 136H165V132H161V136ZM154 136H158V132H154V136ZM147 136H151V132H147V136ZM196 128H200V124H196V128ZM189 128H193V124H189V128ZM182 128H186V124H182V128ZM175 128H179V124H175V128ZM168 128H172V124H168V128ZM161 128H165V124H161V128ZM154 128H158V124H154V128ZM147 128H151V124H147V128ZM196 120H200V116H196V120ZM189 120H193V116H189V120ZM182 120H186V116H182V120ZM175 120H179V116H175V120ZM168 120H172V116H168V120ZM161 120H165V116H161V120ZM154 120H158V116H154V120ZM147 120H151V116H147V120ZM196 112H200V108H196V112ZM189 112H193V108H189V112ZM182 112H186V108H182V112ZM175 112H179V108H175V112ZM168 112H172V108H168V112ZM161 112H165V108H161V112ZM154 112H158V108H154V112ZM147 112H151V108H147V112ZM196 104H200V100H196V104ZM189 104H193V100H189V104ZM182 104H186V100H182V104ZM175 104H179V100H175V104ZM168 104H172V100H168V104ZM161 104H165V100H161V104ZM154 104H158V100H154V104ZM147 104H151V100H147V104Z" fill="#F67E7E"/>
</svg>
